<?xml version="1.0" encoding="UTF-8"?>
<svg id="Warstwa_2" data-name="Warstwa 2" xmlns="http://www.w3.org/2000/svg" viewBox="0 0 1214.92 256.49">
  <defs>
    <style>
      .cls-1 {
        fill: #14120e;
      }
    </style>
  </defs>
  <g id="Warstwa_1-2" data-name="Warstwa 1">
    <g>
      <path class="cls-1" d="m401.96,256.49c6.45-14.26,12.73-28.62,19.1-42.94.31-.68.39-.64.11-1.29-19.95-46.81-40.2-93.49-60.12-140.3,4.82.02,9.66,0,14.48-.05.38,0,.87.06,1.26.14l53.01,123.81c.62-1.23,1.19-2.39,1.73-3.62,17.29-40.05,34.59-80.09,51.9-120.12,4.99-.15,10.01-.21,15.04-.15l-81.43,184.49-15.08.03Z"/>
      <path class="cls-1" d="m285.01,55.3c-.05-.64-.07-1.28-.07-1.92.03-6.6-.04-13.23.09-19.82l19.17.03c-.1,6.81-.1,13.63-.04,20.44,0,.04-.05,1.11-.05,1.19-.73.06-1.48.11-2.2.11-5.63-.06-11.27-.04-16.9-.04"/>
      <path class="cls-1" d="m782.4,227.34c-16.43-5.36-29-16.11-35.01-32.53-.76-2.07-1.46-4.26-1.48-6.45-.24-43.7.17-87.41-.07-131.11,0-1.41-1.03-2.8-1.87-3.87-9.41-3.91-18.7-9.15-27.82-13.91.04,17.98.27,36,.15,53.95,0,1.3.03,2.61.07,3.91l26.48-.07c.41,0,.69.46,1.05.68-8.53,12.27-16.89,24.64-25.55,36.81-.83,1.16-1.79,1.89-1.85,3.24-.56,14.6,0,29.86-.03,44.56,0,1.09.12,1.98.27,3.04,6.41,4.3,12.85,8.6,19.09,13.15,1.04.75,1.07,1.99.55,3.04-.78.33-1.7.54-2.42.97-12.94,8.02-25.83,16.09-38.75,24.13-.34.21-.68.4-1.02.58-20.16-10.55-40.35-21.1-60.33-31.97-.85-.47-1.93-1.73-2.31-2.61-.34-.78-.05-2.11.62-2.59,4.34-3.12,9.15-5.67,13.65-8.58v-41.82l-28.14-.04.16,53.85c3.19,1.98,6.45,3.87,9.55,6.01.68.47,1.22,1.99,1.07,2.85-.2,1.16-.68,2-1.71,2.6-12.64,7.22-25.45,14.2-38.11,21.39-.53.3-1.16.63-1.69.9-17.5-9.17-35.23-17.94-52.56-27.42-.86-.47-1.71-1.61-1.62-2.65.08-.98.18-1.32,1.03-1.87,4.75-3.13,9.86-5.79,14.81-8.62.38-.22.77-.46,1.14-.71,0-39.96-.04-79.93.02-119.89,0-.35-.02-.7-.04-1.04-10.71-7.63-21.29-15.02-32.12-22.39-.85-.59-2.12-1.96-2.05-3.05.05-1,.71-1.54,1.41-1.98,14.24-8.98,28.33-18.19,42.62-27.11.39-.25,1.3-.14,1.74-.04.88.89,2.32,1.86,3.42,2.49,11.92,6.83,23.76,13.79,35.6,20.75,18.1-9.67,36.19-19.3,54.17-29.16,1.15-.63,2.16-.59,3.24,0,13.14,7.22,26.31,14.57,39.4,21.91,1.28.72,2.56,1.4,3.88,2.07.56-.03.77,0,1.29-.33,14.43-9.05,29-17.92,43.27-27.2,1.76-1.14,2.7-1.66,4.52-.79,1.21.57,3.19,2.11,4.52,2.87,15.79,9.04,31.49,18.23,47.15,27.55,2.42,1.44,1.59,2.74,1.59,5.1-.14,45.2-.25,90.42.04,135.62.02,3.68,2.98,9.92,5.07,12.92,3.16,4.56,7.48,7.66,12.04,10.7.74.5,1.36,1.99,1.55,2.86.19.9-.16,1.54-.8,2-12.43,9.03-25.08,17.78-37.57,26.73-.32.23-.66.45-1,.67-.09-.04-.2-.07-.28-.1m-169.21-36.55c.32.22.65.43.98.65-.29-43-.3-86.01-.3-129.02,0-.22-.17-.42-.17-.65-.11-7.18-.02-14.36-.02-21.53l-1.12.05c-.76,0-3.2.74-3.88,1.26-1.36,1.15-2.42,2.17-2.42,4.07-.35,46.71-.28,93.44-.49,140.14,0,1.08.34,1.53.91,2.44.32-.15,1.36-.63,1.36-.63,1.84.87,3.46,2.11,5.17,3.21m4.5-59.92c.03.54.41.51.7.08,7.49-11.21,15.01-22.41,22.57-33.57,1.62-.05,3.24-.09,4.86-.1,0-12.9.23-25.83,0-38.73-.04-1.96-.85-3.87-2.74-4.82-.71.27-.65.55-1.47.11-8.04-4.35-16.22-8.43-24.22-12.82-.03,1.53-.05,3.08-.03,4.61.32,27.98-.06,55.98.31,83.96.02,1.09-.03.21.03,1.29m88.71-33.55l6.3.05c.07-19.82-.22-39.67-.17-59.51-1.29-.51-3.03-.92-4.39-.66-.98.17-2.27.71-2.26,1.98.1,19.38.08,38.77.53,58.15m5.61,84.93c.25.27.52.54.78.82.04-.59.08-1.23.08-1.81-.07-13.8-.06-27.6,0-41.39l-6.51-.04c-.03,12.94-.22,25.91.03,38.84,0,.65,1.03,2.08,1.75,2.16,1.54.15,2.69.2,3.88,1.42"/>
      <path class="cls-1" d="m61.66,214.01c-20.56.04-41.1,0-61.66,0V26.44c19.69,0,39.39-.19,59.08-.03,4.7.03,9.58.8,14.21,1.66,18.98,3.54,36.31,14.53,45.66,31.77,6.18,11.38,9.67,23.97,11.18,36.81,1.28,10.74,1.24,21.5,1.1,32.29-.2,14.42-2.29,29.05-7.25,42.62-3.42,9.37-8.85,17.73-15.82,24.82-7.86,8.01-18.91,13.01-29.7,15.44-5.51,1.23-11.15,2.12-16.79,2.18m-46.51-12.07c15.49,0,31.01.26,46.51,0,5.26-.09,10.42-1.04,15.5-2.47,9.22-2.58,18.18-8.4,23.76-16.28,10.69-15.13,13.85-33.44,14.51-51.67.35-9.72.24-19.37-.56-29.06-1.51-18.28-7.65-38.58-22.21-50.74-8.61-7.19-19.23-11.34-30.35-12.56-14.71-1.6-32.21-.49-47.22-.49l.07,163.27Z"/>
      <path class="cls-1" d="m1057.51,60.83c-.79-.4-1.48-.86-1.96-1.63-6.16-9.95-9.26-21.39-7.03-32.94.71-3.68,3.11-7.27,5.17-10.33,3.42-5.08,8.91-9.6,14.8-11.22,7.98-2.19,18.54,2.56,22.13,9.92,2.58,5.3,2.38,11.96.7,17.44-1.65,5.33-7.96,13.28-11.95,17.33-5.06,5.13-11.13,9.66-17.98,11.92-1.22.36-2.69.07-3.88-.49"/>
      <path class="cls-1" d="m343.24,214.04c-4.64-.03-9.29-.04-13.94,0-.03-.38-.09-.76-.09-1.15,0-60.92.03-121.85-.03-182.76,0-1.24,0-2.47.03-3.7h15.01c-.06,62.15-.07,124.31,0,186.47v1.1c-.33,0-.66.04-.98.04"/>
      <path class="cls-1" d="m1073.01,227.18c-17-8.55-33.94-17.26-51.02-25.62-.59-.29-1.23-.68-1.79-1.04-1.4-2.08-1.26-4.06.44-5.75,2.87-2.85,6.35-5.29,9.54-7.78.34-2.72-.04-5.58-.12-8.32-.56-21.05-.34-42.21-.79-63.29-.04-1.54.27-2.99.18-4.51-.05-.86-.54-1.61-1.28-1.94-7.2-3.18-14.06-7.02-20.46-11.56-.91-.64-.85-2.38-.67-3.29.65-3.23,5.85-6.6,8.49-8.4,10.5-7.14,21.16-14.47,32.29-20.49.47-.25,2.16.1,2.58.41,4.26,3.12,8.95,5.59,13.57,8.15,13.44,7.43,26.98,14.71,40.68,21.65.91.46,1.83,1.46,1.75,2.55-.02.31-.04.62-.09.92-1.2,1.23-2.06,2.03-3.59,2.83-1.94,1-6.64,3.24-8.71,2.82-.8,1.33-1.6,2.81-1.73,4.4-.8,9.41-.46,18.97-.39,28.42.09,13.99.5,28,.94,41.98.09,2.53-.72,5.18,2.14,6.6,6.14,3.07,12.17,6.58,17.99,10.22.93.58,1.61,2.36.83,3.32-.2.24-.47.42-.74.6-13.53,8.56-26.43,18.12-39.46,27.42-.2-.1-.39-.2-.58-.29"/>
      <path class="cls-1" d="m188.24,215.58c-14.63-.85-28.57-7.46-37.09-19.47-7.37-10.38-9.06-24.44-7.88-36.82,2.06-21.58,16.16-37.4,37.22-42.27,10.13-2.35,20.82-2.55,31-.39,10.29,2.18,20.6,7.79,27.14,16.18,1.44,1.84,2.71,3.77,3.86,5.81.29.52.43-.04.46-.64,0-.22.03-.44.03-.65,0-9.48,0-18.94,0-28.42,0-12.16-6.86-22.38-18.58-26.21-13.79-4.5-29.37-3.18-43.27.11-6.93,1.64-13.96,3.88-20.19,7.35l.02-12.72c13.09-6.62,28.21-8.95,42.77-9.38,4.53-.14,9.07-.02,13.56.52,8.97,1.08,17.79,3.81,25.19,9.14,9.15,6.58,14.83,18.01,14.83,29.26,0,35.67-.08,71.33.06,107.01h-13.27s-.78-24.35-.78-24.35c.31.24-.67.45-.84.8-3.44,7.17-8.77,12.81-15.5,17-11.56,7.2-25.4,8.93-38.75,8.13m-3.23-12.78c5.23,1.24,10.76,1.93,16.14,1.73,11.07-.35,23.27-3.99,31.08-12.24,8.12-8.58,10.92-17.44,10.75-29.13-.1-7.39-2.4-14.9-7.17-20.67-7.3-8.83-16.23-13.73-27.56-15.57-5.82-.94-11.61-.87-17.44-.04-13.55,1.92-27.5,10.9-31.4,24.66-2.79,9.81-2.58,22.9,1.79,32.29,4.48,9.61,13.49,16.52,23.81,18.96"/>
      <path class="cls-1" d="m287.21,214.03c0-47.62.03-95.25,0-142.87l15.13-.03c.05,47.04-.06,94.08.05,141.13,0,.6-.04,1.14-.1,1.74l-15.08.02Z"/>
      <path class="cls-1" d="m978.72,227.19c-19.6-9.33-39.49-18.79-58.77-28.73-.54-.29-1.06-.26-1.65-.2-.83.8-1.66,1.66-2.56,2.37-11.19,8.91-22.23,18.01-33.49,26.82-15.55-1.72-30.68-8.01-41.81-19.07-7.19-7.14-12.67-17.12-14.05-27.12-.69-4.97-.52-11.05-.43-16.15.18-10.23,1.91-20.75,5.45-30.36,1.33-3.62,2.86-7.39,5.38-10.33,5.28-6.19,10.8-12.4,16.72-18.04,13.55-12.88,32.43-24.27,49.01-32.9,10.32-5.38,20.87-10.45,31.65-14.78,1.57-.63,4.48,1.29,5.81,1.99,13.68,7.13,27.66,13.85,41.34,21.03,5.68,2.99,11.41,5.95,16.79,9.46,2.17,1.42,3.24,4.32,2.49,6.77-3.31,3.05-6.78,5.51-10.31,8.31-.91.72-1.02,1.01-1.03,2.02-.22,22.86-.07,45.74,0,68.6,8.21,5.29,16.42,10.64,24.36,16.34,1.72,1.24,1.71,3.64,1.51,5.47-.03.24-.63,1.29-.76,1.38-11.63,9.17-23.38,18.2-34.97,27.43-.22-.1-.44-.21-.66-.31m-64.58-34.83c2.93.65,5.95.2,8.4-1.64.48-.37,1.78-1.74,1.79-2.36.21-25.59.41-51.16.35-76.74l-30.36-20.37c-4.48,1.96-8.78,4.73-12.35,8.09-5.37,5.04-8.8,11.48-10.43,18.62-2.18,9.52-2.49,18.21-.35,27.77,1.07,4.8,2.68,9.92,5.16,14.2,5.78,9.97,14.32,17.81,23.59,24.58,4.2,3.07,9.05,6.65,14.21,7.84"/>
      <path class="cls-1" d="m1181.5,226.88c-1.5-.64-3.02-1.29-4.51-1.94-15.36-6.75-30.61-13.71-45.86-20.68-3.44-1.57-7.54-3.06-9.77-6.21-.49-.69-.4-2,.12-2.58,3.27-3.59,6.8-7,10.14-10.48.54-37.41.68-74.81.5-112.23-.05-9.44.27-20.5-1.4-29.7-.76-4.19-7.71-8.65-11.38-10.09-.38-.72-.65-2.05-.29-2.83.16-.35.78-.6,1.09-.7,21.01-6.89,42.07-13.75,63.29-19.93,2.36-.69,4.66-1.2,7.1-.98.85.07,2.14.69,2.33,1.6.04.22.07.43.07.65,0,56.6-1.88,113.23-.63,169.85.04,1.7,1.04,3.84,2.17,5.08.53.59,1.42.62,2.13.54,5.58,3.87,11.2,8.03,17.29,11.09.82.42,1.07,1.85,1,2.67-.08,1.12-.22,1.35-1.04,2-10.6,8.46-21.39,16.67-32.09,25.01-.09-.04-.19-.09-.28-.12"/>
    </g>
  </g>
</svg>