<?xml version="1.0" encoding="UTF-8"?>
<svg id="Warstwa_2" data-name="Warstwa 2" xmlns="http://www.w3.org/2000/svg" xmlns:xlink="http://www.w3.org/1999/xlink" viewBox="0 0 1017.02 1017.02">
  <defs>
    <style>
      .cls-1 {
        fill: #fff;
      }

      .cls-2 {
        fill: url(#Gradient_bez_nazwy_4);
      }

      .cls-3 {
        fill: url(#Gradient_bez_nazwy_6);
      }

      .cls-4 {
        fill: url(#Gradient_bez_nazwy_14);
      }

      .cls-5 {
        fill: url(#Gradient_bez_nazwy_17);
      }

      .cls-6 {
        fill: #060000;
      }

      .cls-7 {
        fill: url(#Gradient_bez_nazwy_8);
      }

      .cls-8 {
        fill: url(#Gradient_bez_nazwy_2-2);
      }

      .cls-9 {
        fill: url(#Gradient_bez_nazwy_2);
      }

      .cls-10 {
        fill: #404040;
      }
    </style>
    <linearGradient id="Gradient_bez_nazwy_17" data-name="Gradient bez nazwy 17" x1="92.19" y1="779.56" x2="944.48" y2="224.64" gradientUnits="userSpaceOnUse">
      <stop offset=".01" stop-color="#bb812d"/>
      <stop offset=".5" stop-color="#d0a44d"/>
      <stop offset="1" stop-color="#edd47a"/>
    </linearGradient>
    <linearGradient id="Gradient_bez_nazwy_6" data-name="Gradient bez nazwy 6" x1="69.8" y1="508.51" x2="947.22" y2="508.51" gradientUnits="userSpaceOnUse">
      <stop offset="0" stop-color="#434343"/>
      <stop offset="1" stop-color="#87888c"/>
    </linearGradient>
    <linearGradient id="Gradient_bez_nazwy_8" data-name="Gradient bez nazwy 8" x1="62.8" y1="508.51" x2="954.22" y2="508.51" gradientUnits="userSpaceOnUse">
      <stop offset="0" stop-color="#555354"/>
      <stop offset="1" stop-color="#666"/>
    </linearGradient>
    <linearGradient id="Gradient_bez_nazwy_14" data-name="Gradient bez nazwy 14" x1="349.62" y1="642.19" x2="674.47" y2="368.89" gradientUnits="userSpaceOnUse">
      <stop offset="0" stop-color="#ebd278"/>
      <stop offset=".51" stop-color="#d3ab54"/>
      <stop offset="1" stop-color="#f1dd8f"/>
    </linearGradient>
    <linearGradient id="Gradient_bez_nazwy_4" data-name="Gradient bez nazwy 4" x1="289.25" y1="508.51" x2="727.77" y2="508.51" gradientUnits="userSpaceOnUse">
      <stop offset="0" stop-color="#262023"/>
      <stop offset="1" stop-color="#919095"/>
    </linearGradient>
    <linearGradient id="Gradient_bez_nazwy_2" data-name="Gradient bez nazwy 2" x1="154.96" y1="517.01" x2="224.64" y2="517.01" gradientUnits="userSpaceOnUse">
      <stop offset="0" stop-color="#cfa34d"/>
      <stop offset="1" stop-color="#f1dd8f"/>
    </linearGradient>
    <linearGradient id="Gradient_bez_nazwy_2-2" data-name="Gradient bez nazwy 2" x1="801.41" x2="871.09" xlink:href="#Gradient_bez_nazwy_2"/>
  </defs>
  <g id="Warstwa_1-2" data-name="Warstwa 1">
    <g>
      <path class="cls-5" d="m994.14,575.1l19.58-22.05c3.93-4.43,4.4-10.94,1.15-15.88l-16.21-24.63c-2.85-4.32-2.88-9.92-.08-14.27l15.94-24.79c3.2-4.98,2.66-11.5-1.33-15.88l-19.84-21.81c-3.48-3.82-4.38-9.33-2.31-14.06l11.84-27.02c2.38-5.43.81-11.78-3.82-15.48l-23.02-18.37c-4.04-3.22-5.8-8.53-4.5-13.53l7.44-28.54c1.5-5.74-1.05-11.76-6.21-14.68l-25.6-14.51c-4.5-2.55-7.08-7.51-6.57-12.66l2.88-29.34c.58-5.9-2.88-11.45-8.42-13.53l-27.61-10.37c-4.84-1.82-8.16-6.32-8.46-11.48l-1.74-29.44c-.35-5.91-4.62-10.85-10.42-12.05l-28.85-5.95c-5.06-1.04-9.04-4.97-10.14-10.02l-6.3-28.8c-1.27-5.79-6.26-10.01-12.18-10.28l-29.43-1.35c-5.17-.24-9.72-3.5-11.6-8.33l-10.7-27.49c-2.15-5.53-7.75-8.92-13.64-8.26l-29.27,3.26c-5.14.57-10.13-1.93-12.74-6.4l-14.89-25.45c-2.99-5.12-9.05-7.58-14.77-6.01l-28.44,7.83c-4.98,1.37-10.3-.32-13.58-4.31l-18.72-22.77c-3.76-4.58-10.13-6.06-15.53-3.6l-26.83,12.21c-4.71,2.14-10.24,1.31-14.11-2.13l-22.06-19.58c-4.43-3.93-10.94-4.4-15.88-1.15l-24.63,16.21c-4.33,2.85-9.92,2.88-14.28.07l-24.79-15.95c-4.99-3.21-11.5-2.66-15.89,1.33l-21.83,19.86c-3.82,3.48-9.33,4.38-14.07,2.3l-26.96-11.83c-5.43-2.38-11.78-.82-15.48,3.81l-18.39,23.02c-3.23,4.04-8.53,5.8-13.53,4.49l-28.49-7.43c-5.73-1.5-11.76,1.05-14.68,6.2l-14.56,25.63c-2.55,4.49-7.51,7.06-12.66,6.56l-29.32-2.88c-5.9-.58-11.44,2.88-13.53,8.42l-10.37,27.59c-1.82,4.84-6.31,8.15-11.47,8.46l-29.46,1.76c-5.9.35-10.84,4.62-12.04,10.41l-5.97,28.87c-1.05,5.06-4.97,9.03-10.01,10.13l-28.82,6.32c-5.78,1.27-9.99,6.26-10.27,12.17l-1.37,29.41c-.24,5.16-3.5,9.7-8.31,11.58l-27.49,10.74c-5.51,2.16-8.9,7.74-8.24,13.63l3.24,29.27c.57,5.13-1.94,10.12-6.39,12.73l-25.43,14.89c-5.11,2.99-7.58,9.05-6,14.77l7.82,28.42c1.37,4.98-.31,10.3-4.3,13.58l-22.78,18.75c-4.57,3.76-6.05,10.13-3.6,15.52l12.19,26.84c2.14,4.71,1.3,10.23-2.13,14.1l-19.58,22.06c-3.93,4.43-4.4,10.94-1.15,15.88l16.21,24.63c2.84,4.32,2.87,9.92.08,14.27l-15.94,24.79c-3.21,4.99-2.66,11.5,1.33,15.89l19.85,21.8c3.48,3.82,4.39,9.34,2.31,14.07l-11.83,26.96c-2.38,5.43-.82,11.78,3.81,15.48l23.01,18.4c4.03,3.23,5.79,8.52,4.49,13.52l-7.44,28.55c-1.49,5.74,1.05,11.76,6.21,14.68l25.61,14.51c4.5,2.55,7.07,7.51,6.57,12.65l-2.86,29.34c-.57,5.89,2.87,11.43,8.41,13.51l27.62,10.41c4.83,1.82,8.14,6.32,8.45,11.47l1.74,29.42c.35,5.91,4.62,10.85,10.42,12.05l28.87,5.95c5.07,1.04,9.04,4.97,10.15,10.03l6.28,28.8c1.26,5.79,6.25,10.01,12.17,10.28l29.45,1.39c5.16.24,9.7,3.5,11.58,8.32l10.7,27.46c2.15,5.52,7.75,8.91,13.64,8.26l29.28-3.26c5.14-.57,10.13,1.93,12.74,6.39l14.89,25.43c2.99,5.11,9.05,7.58,14.76,6.01l28.45-7.83c4.98-1.37,10.3.32,13.58,4.31l18.72,22.78c3.76,4.57,10.12,6.05,15.51,3.61l26.84-12.17c4.71-2.13,10.23-1.3,14.09,2.13l22.06,19.59c4.43,3.93,10.94,4.4,15.88,1.15l24.63-16.21c4.32-2.84,9.91-2.87,14.26-.08l24.8,15.92c4.98,3.2,11.5,2.65,15.88-1.33l21.81-19.84c3.82-3.48,9.33-4.38,14.06-2.3l26.99,11.84c5.43,2.38,11.78.82,15.48-3.82l18.4-23.03c3.23-4.04,8.53-5.8,13.53-4.49l28.49,7.43c5.73,1.5,11.76-1.05,14.68-6.2l14.56-25.63c2.55-4.49,7.51-7.06,12.65-6.56l29.37,2.86c5.89.57,11.43-2.88,13.52-8.42l10.36-27.57c1.82-4.84,6.32-8.16,11.49-8.46l29.43-1.72c5.91-.35,10.86-4.62,12.05-10.43l5.95-28.89c1.04-5.07,4.97-9.05,10.03-10.15l28.79-6.28c5.79-1.26,10.01-6.26,10.28-12.18l1.37-29.43c.24-5.16,3.5-9.7,8.31-11.58l27.49-10.74c5.51-2.16,8.89-7.74,8.24-13.63l-3.25-29.3c-.57-5.13,1.94-10.12,6.39-12.73l25.43-14.89c5.11-2.99,7.58-9.05,6-14.77l-7.82-28.41c-1.37-4.98.32-10.31,4.31-13.59l22.79-18.72c4.58-3.76,6.06-10.13,3.61-15.53l-12.2-26.83c-2.14-4.71-1.31-10.24,2.13-14.11Zm-61.43-4.61c-34.26,234.26-251.92,396.43-486.18,362.19-234.26-34.23-396.43-251.86-362.22-486.13C118.57,212.3,336.23,50.1,570.52,84.34c234.23,34.2,396.4,251.89,362.19,486.15Z"/>
      <circle class="cls-3" cx="508.51" cy="508.51" r="438.71"/>
      <path class="cls-7" d="m508.51,954.22c-60.17,0-118.54-11.79-173.49-35.03-53.08-22.45-100.74-54.58-141.67-95.52-40.93-40.93-73.07-88.6-95.52-141.67-23.24-54.95-35.03-113.33-35.03-173.49s11.79-118.54,35.03-173.49c22.45-53.08,54.59-100.74,95.52-141.67,40.93-40.93,88.6-73.07,141.67-95.52,54.95-23.24,113.33-35.03,173.49-35.03s118.54,11.79,173.49,35.03c53.08,22.45,100.74,54.59,141.67,95.52,40.93,40.93,73.07,88.6,95.52,141.67,23.24,54.95,35.03,113.32,35.03,173.49s-11.79,118.54-35.03,173.49c-22.45,53.08-54.59,100.74-95.52,141.67-40.93,40.93-88.6,73.07-141.67,95.52-54.95,23.24-113.32,35.03-173.49,35.03Zm0-877.42c-238.05,0-431.71,193.66-431.71,431.71s193.66,431.71,431.71,431.71,431.71-193.66,431.71-431.71S746.56,76.8,508.51,76.8Z"/>
      <circle class="cls-4" cx="508.51" cy="508.51" r="212.26"/>
      <path class="cls-2" d="m508.51,727.77c-58.57,0-113.63-22.81-155.04-64.22-41.41-41.41-64.22-96.47-64.22-155.04s22.81-113.63,64.22-155.04,96.47-64.22,155.04-64.22,113.63,22.81,155.04,64.22c41.41,41.41,64.22,96.47,64.22,155.04s-22.81,113.63-64.22,155.04c-41.41,41.41-96.47,64.22-155.04,64.22Zm0-424.52c-113.18,0-205.26,92.08-205.26,205.26s92.08,205.26,205.26,205.26,205.26-92.08,205.26-205.26-92.08-205.26-205.26-205.26Z"/>
      <g>
        <g>
          <path class="cls-10" d="m400.76,385.95c9.83-8.63,23.15-12.95,39.97-12.95,11.17,0,20.73,1.94,28.7,5.81,7.96,3.87,13.99,9.16,18.09,15.86,4.09,6.7,6.14,14.22,6.14,22.55,0,9.83-2.46,17.83-7.37,24.01-4.91,6.18-10.65,10.38-17.2,12.62v.89c8.49,2.83,15.19,7.52,20.1,14.07,4.91,6.55,7.37,14.96,7.37,25.23,0,9.23-2.12,17.38-6.36,24.45-4.24,7.07-10.42,12.62-18.54,16.64-8.12,4.02-17.75,6.03-28.92,6.03-17.87,0-32.12-4.39-42.76-13.18-10.65-8.78-16.27-22.03-16.86-39.75h37.07c.15,6.55,2.01,11.72,5.58,15.52,3.57,3.8,8.78,5.69,15.63,5.69,5.81,0,10.31-1.68,13.51-5.02,3.2-3.35,4.8-7.78,4.8-13.29,0-7.15-2.27-12.32-6.81-15.52-4.54-3.2-11.8-4.8-21.77-4.8h-7.15v-31.04h7.15c7.59,0,13.73-1.3,18.42-3.91,4.69-2.6,7.03-7.26,7.03-13.96,0-5.36-1.49-9.53-4.47-12.51-2.98-2.98-7.07-4.47-12.28-4.47-5.66,0-9.86,1.71-12.62,5.14-2.76,3.43-4.35,7.67-4.8,12.73h-37.29c.59-15.93,5.81-28.21,15.63-36.85Z"/>
          <path class="cls-10" d="m522.58,395.55c9.9-14.74,25.87-22.11,47.9-22.11s38,7.37,47.9,22.11c9.9,14.74,14.85,34.91,14.85,60.52s-4.95,46.23-14.85,60.97c-9.9,14.74-25.87,22.11-47.9,22.11s-38-7.37-47.9-22.11c-9.9-14.74-14.85-35.06-14.85-60.97s4.95-45.78,14.85-60.52Zm68.22,25.79c-3.28-8.11-10.05-12.17-20.32-12.17s-17.05,4.06-20.32,12.17c-3.28,8.12-4.91,19.69-4.91,34.73,0,10.13.59,18.5,1.79,25.12,1.19,6.63,3.61,11.99,7.26,16.08,3.65,4.1,9.04,6.14,16.19,6.14s12.54-2.04,16.19-6.14c3.65-4.09,6.06-9.45,7.26-16.08,1.19-6.62,1.79-15,1.79-25.12,0-15.04-1.64-26.61-4.91-34.73Z"/>
        </g>
        <g>
          <path class="cls-10" d="m460.89,566.7c5.77,2.94,10.24,7.16,13.38,12.66,3.15,5.5,4.72,11.92,4.72,19.25s-1.57,13.7-4.72,19.09c-3.15,5.4-7.61,9.53-13.38,12.4-5.78,2.87-12.5,4.31-20.18,4.31h-23.55v-72.11h23.55c7.68,0,14.4,1.47,20.18,4.41Zm-.78,51.2c4.5-4.56,6.74-11,6.74-19.3s-2.25-14.9-6.74-19.61c-4.5-4.7-10.96-7.06-19.4-7.06h-11.72v52.81h11.72c8.44,0,14.9-2.28,19.4-6.85Z"/>
          <path class="cls-10" d="m529,619.67h-30.19l-5.19,14.73h-12.35l25.83-72.21h13.7l25.83,72.21h-12.45l-5.19-14.73Zm-3.32-9.65l-11.72-33.51-11.83,33.51h23.55Z"/>
          <path class="cls-10" d="m606.09,562.29l-23.86,45.96v26.15h-11.83v-26.15l-23.97-45.96h13.18l16.7,35.38,16.7-35.38h13.07Z"/>
        </g>
      </g>
      <g>
        <path class="cls-1" d="m247.76,240.32l59.44,49.17-8.07,9.75-40.71-33.68,25.71,51.81-5.59,6.76-55.78-15.46,40.71,33.68-8.07,9.75-59.45-49.17,8.7-10.52,63.88,17.69-29.42-59.34,8.63-10.44Z"/>
        <path class="cls-1" d="m322.64,273.47c-6.88.65-13.47-.5-19.79-3.47-6.32-2.97-11.62-7.56-15.91-13.77-4.29-6.21-6.68-12.78-7.19-19.71-.51-6.93.76-13.49,3.81-19.69,3.05-6.2,7.53-11.33,13.44-15.41,5.97-4.12,12.39-6.5,19.27-7.16,6.88-.65,13.45.5,19.71,3.46,6.27,2.96,11.54,7.55,15.83,13.76,4.29,6.21,6.71,12.79,7.27,19.73.56,6.94-.68,13.51-3.74,19.7-3.05,6.2-7.56,11.35-13.53,15.47-5.91,4.08-12.3,6.44-19.18,7.09Zm22.19-26.77c1.97-4.19,2.65-8.7,2.05-13.55-.6-4.84-2.52-9.61-5.75-14.3-3.23-4.69-7-8.16-11.29-10.41-4.29-2.25-8.74-3.19-13.33-2.81-4.59.38-8.99,2.02-13.19,4.92s-7.3,6.43-9.29,10.58c-1.99,4.16-2.69,8.64-2.11,13.46.58,4.82,2.49,9.57,5.72,14.26,3.24,4.69,7.01,8.18,11.33,10.46,4.32,2.28,8.78,3.25,13.39,2.9,4.61-.35,9.02-1.98,13.22-4.87s7.29-6.44,9.25-10.63Z"/>
        <path class="cls-1" d="m435.95,221.04l-11.87,4.39-55.7-40.81,20,54.03-11.87,4.39-26.81-72.45,11.87-4.39,55.66,40.71-19.96-53.92,11.87-4.39,26.81,72.45Z"/>
        <path class="cls-1" d="m445.9,152.19l3.4,22.39,26.34-4,1.55,10.21-26.34,4,3.55,23.38,29.63-4.49,1.55,10.21-42.14,6.39-11.59-76.38,42.14-6.39,1.55,10.21-29.63,4.49Z"/>
        <path class="cls-1" d="m551.65,137.77l-26.98,48.39-.83,27.96-12.65-.38.83-27.96-24.17-49.91,14.09.42,16.74,38.37,18.99-37.3,13.98.42Z"/>
        <path class="cls-1" d="m631.21,203.42c1.66,4.33,1.8,8.68.42,13.05-1.18,3.74-3.21,6.8-6.1,9.19-2.89,2.39-6.44,3.87-10.65,4.44-4.22.57-8.76.09-13.63-1.44l-29.43-9.28,23.2-73.57,28.05,8.84c5.01,1.58,9.05,3.78,12.11,6.61s5.06,5.96,6,9.4c.93,3.44.84,6.92-.27,10.45-1.33,4.23-3.58,7.41-6.73,9.52-3.15,2.11-6.84,3.24-11.07,3.38,3.73,1.95,6.43,5.09,8.09,9.42Zm-17.34,15.13c2.95-1.24,4.98-3.63,6.1-7.16,1.13-3.6.8-6.85-1-9.74-1.8-2.9-4.75-4.99-8.84-6.28l-15.88-5.01-7.24,22.97,16.3,5.14c4.09,1.29,7.62,1.32,10.57.07Zm-16.52-38.03l14.93,4.71c3.95,1.25,7.32,1.32,10.11.22,2.79-1.1,4.72-3.34,5.79-6.73,1.05-3.32.75-6.26-.88-8.83-1.63-2.57-4.43-4.48-8.38-5.73l-14.93-4.71-6.64,21.07Z"/>
        <path class="cls-1" d="m677.56,247.55l-27.97-16.15-12.69,10.87-11.44-6.61,62.57-53.08,12.69,7.33-14.7,80.72-11.54-6.66,3.08-16.42Zm2.09-10.72l7.07-37.32-28.89,24.72,21.82,12.6Z"/>
        <path class="cls-1" d="m729.43,230.18c6.69-1.89,13.37-1.95,20.05-.2,6.68,1.75,12.61,5.11,17.79,10.09,5.92,5.69,9.79,12.21,11.62,19.55,1.82,7.34,1.21,14.68-1.84,22.02l-10.97-10.54c1.38-4.32,1.48-8.43.3-12.33s-3.45-7.47-6.81-10.7c-3.68-3.54-7.76-5.86-12.23-6.98-4.47-1.11-9.01-.91-13.61.62-4.6,1.53-8.88,4.35-12.82,8.46-3.95,4.11-6.6,8.49-7.94,13.15-1.35,4.66-1.39,9.21-.12,13.66,1.27,4.45,3.74,8.44,7.42,11.98,3.36,3.23,7.01,5.36,10.96,6.38,3.95,1.02,8.05.76,12.31-.79l10.97,10.54c-7.21,3.34-14.51,4.23-21.89,2.67-7.38-1.55-14.04-5.18-19.96-10.87-5.23-5.03-8.84-10.83-10.83-17.41-1.99-6.58-2.18-13.25-.56-20.01,1.62-6.76,5.04-12.86,10.27-18.3,5.23-5.44,11.19-9.11,17.88-10.99Z"/>
        <path class="cls-1" d="m764.52,361.59l12.72-43.83-28.97,18.78-6.88-10.62,64.73-41.97,6.88,10.62-29.52,19.14,45.83,6.01,8.63,13.32-50.65-7.12-13.78,49.55-9-13.88Z"/>
        <path class="cls-1" d="m762.79,749.45c4.23.94,8.24.68,12.03-.78,3.79-1.46,7.18-3.98,10.17-7.55,3.28-3.91,5.33-8.14,6.14-12.67.81-4.54.33-9.02-1.45-13.46-1.78-4.44-4.8-8.44-9.05-12.01-4.25-3.57-8.73-5.86-13.44-6.86-4.71-1.01-9.23-.72-13.55.87-4.33,1.59-8.13,4.33-11.41,8.25-4.42,5.27-6.54,10.79-6.35,16.55.19,5.76,2.5,11.13,6.92,16.1l18.62-22.19,7.74,6.49-27.33,32.57-7.57-6.35c-4.07-4.48-6.92-9.65-8.57-15.52-1.64-5.87-1.84-11.88-.59-18.03,1.25-6.15,4.04-11.8,8.37-16.96,4.66-5.56,10.21-9.55,16.64-11.97,6.43-2.43,13.07-3.06,19.92-1.9,6.85,1.16,13.17,4.17,18.95,9.02,5.78,4.85,9.84,10.55,12.17,17.1,2.33,6.54,2.85,13.21,1.55,20-1.3,6.78-4.25,12.92-8.87,18.42-5.28,6.29-11.52,10.59-18.73,12.9-7.2,2.31-14.57,2.19-22.09-.35l9.78-11.65Z"/>
        <path class="cls-1" d="m742.24,798.27l-29.07-39.66c-3.46-4.72-7.3-7.36-11.53-7.93-4.23-.57-8.55.76-12.96,4-4.48,3.28-7.08,7.02-7.8,11.23-.73,4.2.64,8.66,4.09,13.38l29.07,39.66-10.21,7.48-28.94-39.48c-3.72-5.07-5.76-10.18-6.14-15.32-.37-5.14.66-9.93,3.09-14.38,2.43-4.45,5.88-8.31,10.36-11.59,4.48-3.28,9.18-5.4,14.12-6.36,4.94-.96,9.77-.47,14.5,1.48,4.73,1.95,8.95,5.46,12.67,10.53l28.94,39.48-10.21,7.48Z"/>
        <path class="cls-1" d="m615.77,800.4l29.69-12.71-1.1-16.67,12.14-5.2,5,81.9-13.47,5.77-55.82-60.14,12.24-5.24,11.31,12.3Zm7.33,8.09l25.64,28.02-2.48-37.94-23.16,9.92Z"/>
        <path class="cls-1" d="m550.11,800.61l23.15,27.05,9.49-1.78-5.69-30.33,12.44-2.33,14.23,75.82-26.18,4.91c-5.82,1.09-10.94,1-15.36-.28-4.42-1.28-7.95-3.44-10.59-6.48-2.64-3.04-4.36-6.67-5.15-10.89-.93-4.95-.33-9.71,1.78-14.28,2.12-4.58,6.02-8.15,11.71-10.72l-24.66-27.9,14.84-2.78Zm34.5,35.2l-13.75,2.58c-4.65.87-7.95,2.69-9.87,5.47-1.93,2.77-2.52,6.12-1.79,10.05.74,3.93,2.48,6.78,5.22,8.56,2.74,1.78,6.48,2.23,11.21,1.34l13.75-2.58-4.77-25.42Z"/>
        <path class="cls-1" d="m482.74,818.34l32.29.98,6.03-15.59,13.2.4-29.98,76.38-14.65-.45-25.27-78.06,13.31.41,5.07,15.92Zm3.24,10.43l11.45,36.22,13.74-35.45-25.19-.77Z"/>
        <path class="cls-1" d="m400.9,784.8l12.22,3.3,21.74,65.54,15.02-55.62,12.22,3.3-20.14,74.58-12.22-3.3-21.77-65.43-14.99,55.51-12.22-3.3,20.14-74.59Z"/>
        <path class="cls-1" d="m314.81,827.12l4.72-9.18,18.26,9.39,30.55-59.43,11.25,5.79-30.55,59.43,18.36,9.44-4.72,9.18-47.88-24.61Z"/>
        <path class="cls-1" d="m296.38,801.54l13.7-18.03-21.21-16.11,6.24-8.22,21.21,16.11,14.3-18.83-23.87-18.13,6.24-8.22,33.94,25.78-46.73,61.52-33.94-25.78,6.24-8.22,23.87,18.13Z"/>
        <path class="cls-1" d="m250.47,762.02l16.5-15.51-18.24-19.41,7.52-7.07,18.24,19.41,17.23-16.19-20.52-21.84,7.52-7.07,29.19,31.06-56.3,52.9-29.19-31.06,7.52-7.07,20.52,21.84Z"/>
      </g>
      <g>
        <polygon class="cls-6" points="189.29 480.63 200.77 503.9 226.45 507.63 207.87 525.75 212.25 551.32 189.29 539.25 166.32 551.32 170.7 525.75 152.12 507.63 177.8 503.9 189.29 480.63"/>
        <polygon class="cls-9" points="189.8 483.88 200.57 505.69 224.64 509.19 207.22 526.17 211.33 550.14 189.8 538.82 168.27 550.14 172.38 526.17 154.96 509.19 179.04 505.69 189.8 483.88"/>
      </g>
      <g>
        <polygon class="cls-6" points="835.74 480.63 847.22 503.9 872.9 507.63 854.32 525.75 858.7 551.32 835.74 539.25 812.77 551.32 817.16 525.75 798.58 507.63 824.25 503.9 835.74 480.63"/>
        <polygon class="cls-8" points="836.25 483.88 847.02 505.69 871.09 509.19 853.67 526.17 857.78 550.14 836.25 538.82 814.72 550.14 818.83 526.17 801.41 509.19 825.49 505.69 836.25 483.88"/>
      </g>
    </g>
  </g>
</svg>