<?xml version="1.0" encoding="UTF-8"?>
<svg id="Warstwa_2" data-name="Warstwa 2" xmlns="http://www.w3.org/2000/svg" viewBox="0 0 299.51 44.75">
  <defs>
    <style>
      .cls-1 {
        fill: #e30613;
      }
    </style>
  </defs>
  <g id="Warstwa_1-2" data-name="Warstwa 1">
    <g>
      <circle class="cls-1" cx="292.75" cy="6.76" r="6.76"/>
      <g>
        <path d="m28.74,30.1c2.8-1.24,4.97-3.02,6.49-5.35,1.52-2.33,2.29-5.1,2.29-8.31s-.76-6.06-2.29-8.41c-1.52-2.35-3.69-4.15-6.49-5.41-2.8-1.26-6.14-1.89-10.01-1.89H0v43.27h10.01v-12.05h8.72c.16,0,.31,0,.47,0l8.31,12.06h10.82l-9.67-13.87s.06-.02.09-.04Zm-3.65-19.22c1.52,1.32,2.29,3.17,2.29,5.56s-.76,4.19-2.29,5.53c-1.53,1.34-3.83,2.01-6.92,2.01h-8.16v-15.08h8.16c3.09,0,5.4.66,6.92,1.98Z"/>
        <polygon points="84.93 .74 73.34 19.95 61.81 .74 51.18 .74 67.93 28.59 67.93 44.01 77.94 44.01 77.94 28.69 94.75 .74 84.93 .74"/>
        <path d="m147.32,6.37c-2.12-2.02-4.62-3.58-7.48-4.7-2.86-1.11-6.01-1.67-9.43-1.67s-6.51.56-9.4,1.67c-2.88,1.11-5.4,2.68-7.54,4.7-2.14,2.02-3.8,4.39-4.98,7.11-1.17,2.72-1.76,5.69-1.76,8.9s.59,6.18,1.76,8.9c1.17,2.72,2.82,5.09,4.95,7.11,2.12,2.02,4.64,3.58,7.54,4.7s6.07,1.67,9.49,1.67,6.5-.56,9.36-1.67c2.86-1.11,5.36-2.67,7.48-4.67,2.12-2,3.78-4.37,4.98-7.11,1.19-2.74,1.79-5.72,1.79-8.93s-.6-6.23-1.79-8.93c-1.2-2.7-2.85-5.06-4.98-7.08Zm-4.39,21.63c-.68,1.69-1.64,3.15-2.87,4.39-1.24,1.24-2.67,2.18-4.3,2.84-1.63.66-3.41.99-5.35.99s-3.73-.33-5.38-.99c-1.65-.66-3.08-1.61-4.3-2.84-1.22-1.24-2.16-2.71-2.84-4.42-.68-1.71-1.02-3.57-1.02-5.59s.34-3.93,1.02-5.62c.68-1.69,1.64-3.15,2.87-4.39,1.24-1.24,2.67-2.18,4.3-2.84,1.63-.66,3.41-.99,5.35-.99s3.73.33,5.38.99c1.65.66,3.08,1.61,4.3,2.84,1.21,1.24,2.16,2.7,2.84,4.39.68,1.69,1.02,3.56,1.02,5.62s-.34,3.94-1.02,5.62Z"/>
        <polygon points="214.23 .74 203.11 .74 183.95 20.93 183.95 .74 173.99 .74 173.99 44.01 183.95 44.01 183.95 33.09 189.74 27.03 203.6 44.01 215.28 44.01 196.32 20.02 214.23 .74"/>
        <path d="m260.4.74v23.86c0,4.12-.85,7.09-2.53,8.9-1.69,1.81-4.06,2.72-7.11,2.72s-5.42-.91-7.11-2.72c-1.69-1.81-2.53-4.78-2.53-8.9V.74h-10.01v24.23c0,6.35,1.73,11.23,5.19,14.65,3.46,3.42,8.26,5.13,14.4,5.13s10.94-1.71,14.4-5.13c3.46-3.42,5.19-8.3,5.19-14.65V.74h-9.89Z"/>
      </g>
    </g>
  </g>
</svg>